<?xml version="1.0" encoding="UTF-8"?>
<svg xmlns="http://www.w3.org/2000/svg" xmlns:xlink="http://www.w3.org/1999/xlink" width="192pt" height="192pt" viewBox="0 0 192 192" version="1.1">
<g id="surface1">
<path style=" stroke:none;fill-rule:evenodd;fill:rgb(10.588235%,63.921569%,57.647059%);fill-opacity:1;" d="M 51.308594 119.550781 L 96.136719 142.039062 L 187.949219 95.882812 C 190.378906 94.699219 192 92.332031 192 89.726562 L 192 48.777344 Z M 44.828125 71.265625 L 0 48.777344 L 0 138.960938 C 0 141.566406 1.621094 143.933594 4.050781 145.351562 L 44.828125 165.710938 C 44.828125 165.710938 44.828125 71.265625 44.828125 71.265625 Z M 91.273438 0.726562 L 2.160156 45.699219 L 46.988281 68.1875 L 96.136719 43.570312 L 145.28125 68.1875 L 189.839844 45.464844 L 100.457031 0.488281 C 99.105469 -0.21875 97.753906 -0.457031 96.136719 -0.457031 C 94.246094 -0.457031 92.625 -0.21875 91.273438 0.726562 Z M 142.851562 122.867188 L 100.1875 144.40625 L 142.851562 165.945312 C 142.851562 165.710938 142.851562 122.867188 142.851562 122.867188 Z M 140.691406 169.023438 L 95.863281 146.535156 L 51.308594 169.023438 L 96.136719 191.511719 Z M 140.691406 169.023438 "/>
</g>
</svg>
