<?xml version="1.0" encoding="UTF-8"?>
<svg xmlns="http://www.w3.org/2000/svg" xmlns:xlink="http://www.w3.org/1999/xlink" width="16pt" height="16pt" viewBox="0 0 16 16" version="1.1">
<g id="surface1">
<path style=" stroke:none;fill-rule:evenodd;fill:rgb(10.588235%,63.921569%,57.647059%);fill-opacity:1;" d="M 4.277344 9.960938 L 8.011719 11.835938 L 15.664062 7.988281 C 15.863281 7.890625 16 7.695312 16 7.476562 L 16 4.066406 Z M 3.734375 5.9375 L 0 4.066406 L 0 11.582031 C 0 11.796875 0.136719 11.996094 0.335938 12.113281 L 3.734375 13.808594 C 3.734375 13.808594 3.734375 5.9375 3.734375 5.9375 Z M 7.605469 0.0625 L 0.179688 3.808594 L 3.914062 5.683594 L 8.011719 3.628906 L 12.105469 5.683594 L 15.820312 3.789062 L 8.371094 0.0390625 C 8.257812 -0.0195312 8.144531 -0.0390625 8.011719 -0.0390625 C 7.855469 -0.0390625 7.71875 -0.0195312 7.605469 0.0625 Z M 11.90625 10.238281 L 8.347656 12.035156 L 11.90625 13.828125 C 11.90625 13.808594 11.90625 10.238281 11.90625 10.238281 Z M 11.722656 14.085938 L 7.988281 12.210938 L 4.277344 14.085938 L 8.011719 15.960938 Z M 11.722656 14.085938 "/>
</g>
</svg>
