<?xml version="1.0" encoding="UTF-8"?>
<svg xmlns="http://www.w3.org/2000/svg" xmlns:xlink="http://www.w3.org/1999/xlink" width="96pt" height="96pt" viewBox="0 0 96 96" version="1.1">
<g id="surface1">
<path style=" stroke:none;fill-rule:evenodd;fill:rgb(10.588235%,63.921569%,57.647059%);fill-opacity:1;" d="M 25.652344 59.777344 L 48.066406 71.019531 L 93.976562 47.941406 C 95.191406 47.347656 96 46.164062 96 44.863281 L 96 24.390625 Z M 22.414062 35.632812 L 0 24.390625 L 0 69.480469 C 0 70.78125 0.808594 71.964844 2.023438 72.675781 L 22.414062 82.855469 C 22.414062 82.855469 22.414062 35.632812 22.414062 35.632812 Z M 45.636719 0.363281 L 1.082031 22.851562 L 23.492188 34.09375 L 48.066406 21.785156 L 72.640625 34.09375 L 94.917969 22.730469 L 50.226562 0.246094 C 49.554688 -0.109375 48.878906 -0.226562 48.066406 -0.226562 C 47.121094 -0.226562 46.3125 -0.109375 45.636719 0.363281 Z M 71.425781 61.433594 L 50.09375 72.203125 L 71.425781 82.972656 C 71.425781 82.855469 71.425781 61.433594 71.425781 61.433594 Z M 70.347656 84.511719 L 47.933594 73.269531 L 25.652344 84.511719 L 48.066406 95.753906 Z M 70.347656 84.511719 "/>
</g>
</svg>
