<?xml version="1.0" encoding="UTF-8"?>
<svg xmlns="http://www.w3.org/2000/svg" xmlns:xlink="http://www.w3.org/1999/xlink" width="32pt" height="32pt" viewBox="0 0 32 32" version="1.1">
<g id="surface1">
<path style=" stroke:none;fill-rule:evenodd;fill:rgb(10.588235%,63.921569%,57.647059%);fill-opacity:1;" d="M 8.550781 19.925781 L 16.023438 23.671875 L 31.324219 15.980469 C 31.730469 15.78125 32 15.386719 32 14.953125 L 32 8.128906 Z M 7.472656 11.878906 L 0 8.128906 L 0 23.160156 C 0 23.59375 0.269531 23.988281 0.675781 24.226562 L 7.472656 27.617188 C 7.472656 27.617188 7.472656 11.878906 7.472656 11.878906 Z M 15.210938 0.121094 L 0.359375 7.617188 L 7.832031 11.363281 L 16.023438 7.261719 L 24.214844 11.363281 L 31.640625 7.578125 L 16.742188 0.0820312 C 16.519531 -0.0351562 16.292969 -0.0742188 16.023438 -0.0742188 C 15.707031 -0.0742188 15.4375 -0.0351562 15.210938 0.121094 Z M 23.808594 20.476562 L 16.699219 24.066406 L 23.808594 27.65625 C 23.808594 27.617188 23.808594 20.476562 23.808594 20.476562 Z M 23.449219 28.171875 L 15.976562 24.421875 L 8.550781 28.171875 L 16.023438 31.917969 Z M 23.449219 28.171875 "/>
</g>
</svg>
