<?xml version="1.0" encoding="UTF-8"?>
<svg xmlns="http://www.w3.org/2000/svg" xmlns:xlink="http://www.w3.org/1999/xlink" width="57pt" height="57pt" viewBox="0 0 57 57" version="1.1">
<g id="surface1">
<path style=" stroke:none;fill-rule:evenodd;fill:rgb(10.588235%,63.921569%,57.647059%);fill-opacity:1;" d="M 15.230469 35.492188 L 28.539062 42.167969 L 55.796875 28.464844 C 56.519531 28.113281 57 27.410156 57 26.636719 L 57 14.480469 Z M 13.308594 21.15625 L 0 14.480469 L 0 41.253906 C 0 42.027344 0.480469 42.730469 1.203125 43.152344 L 13.308594 49.195312 C 13.308594 49.195312 13.308594 21.15625 13.308594 21.15625 Z M 27.097656 0.214844 L 0.640625 13.566406 L 13.949219 20.242188 L 28.539062 12.933594 L 43.128906 20.242188 L 56.359375 13.496094 L 29.824219 0.144531 C 29.421875 -0.0664062 29.019531 -0.136719 28.539062 -0.136719 C 27.980469 -0.136719 27.496094 -0.0664062 27.097656 0.214844 Z M 42.410156 36.476562 L 29.742188 42.871094 L 42.410156 49.265625 C 42.410156 49.195312 42.410156 36.476562 42.410156 36.476562 Z M 41.769531 50.179688 L 28.460938 43.503906 L 15.230469 50.179688 L 28.539062 56.855469 Z M 41.769531 50.179688 "/>
</g>
</svg>
