<?xml version="1.0" encoding="UTF-8"?>
<svg xmlns="http://www.w3.org/2000/svg" xmlns:xlink="http://www.w3.org/1999/xlink" width="60pt" height="60pt" viewBox="0 0 60 60" version="1.1">
<g id="surface1">
<path style=" stroke:none;fill-rule:evenodd;fill:rgb(10.588235%,63.921569%,57.647059%);fill-opacity:1;" d="M 16.035156 37.359375 L 30.042969 44.386719 L 58.734375 29.964844 C 59.492188 29.59375 60 28.851562 60 28.039062 L 60 15.242188 Z M 14.007812 22.269531 L 0 15.242188 L 0 43.425781 C 0 44.238281 0.507812 44.980469 1.265625 45.421875 L 14.007812 51.785156 C 14.007812 51.785156 14.007812 22.269531 14.007812 22.269531 Z M 28.523438 0.226562 L 0.675781 14.28125 L 14.683594 21.308594 L 30.042969 13.617188 L 45.402344 21.308594 L 59.324219 14.207031 L 31.390625 0.152344 C 30.96875 -0.0703125 30.546875 -0.144531 30.042969 -0.144531 C 29.453125 -0.144531 28.945312 -0.0703125 28.523438 0.226562 Z M 44.640625 38.394531 L 31.308594 45.125 L 44.640625 51.859375 C 44.640625 51.785156 44.640625 38.394531 44.640625 38.394531 Z M 43.964844 52.820312 L 29.957031 45.792969 L 16.035156 52.820312 L 30.042969 59.847656 Z M 43.964844 52.820312 "/>
</g>
</svg>
