<?xml version="1.0" encoding="UTF-8"?>
<svg xmlns="http://www.w3.org/2000/svg" xmlns:xlink="http://www.w3.org/1999/xlink" width="180pt" height="180pt" viewBox="0 0 180 180" version="1.1">
<g id="surface1">
<path style=" stroke:none;fill-rule:evenodd;fill:rgb(10.588235%,63.921569%,57.647059%);fill-opacity:1;" d="M 48.101562 112.078125 L 90.125 133.160156 L 176.203125 89.890625 C 178.480469 88.78125 180 86.558594 180 84.121094 L 180 45.730469 Z M 42.023438 66.808594 L 0 45.730469 L 0 130.277344 C 0 132.71875 1.519531 134.9375 3.796875 136.269531 L 42.023438 155.351562 C 42.023438 155.351562 42.023438 66.808594 42.023438 66.808594 Z M 85.570312 0.679688 L 2.023438 42.84375 L 44.050781 63.925781 L 90.125 40.847656 L 136.203125 63.925781 L 177.976562 42.621094 L 94.175781 0.460938 C 92.910156 -0.207031 91.644531 -0.429688 90.125 -0.429688 C 88.355469 -0.429688 86.835938 -0.207031 85.570312 0.679688 Z M 133.925781 115.1875 L 93.925781 135.378906 L 133.925781 155.574219 C 133.925781 155.351562 133.925781 115.1875 133.925781 115.1875 Z M 131.898438 158.460938 L 89.875 137.378906 L 48.101562 158.460938 L 90.125 179.539062 Z M 131.898438 158.460938 "/>
</g>
</svg>
