<?xml version="1.0" encoding="UTF-8"?>
<svg xmlns="http://www.w3.org/2000/svg" xmlns:xlink="http://www.w3.org/1999/xlink" width="152pt" height="152pt" viewBox="0 0 152 152" version="1.1">
<g id="surface1">
<path style=" stroke:none;fill-rule:evenodd;fill:rgb(10.588235%,63.921569%,57.647059%);fill-opacity:1;" d="M 40.617188 94.644531 L 76.105469 112.449219 L 148.792969 75.90625 C 150.71875 74.96875 152 73.09375 152 71.035156 L 152 38.617188 Z M 35.488281 56.417969 L 0 38.617188 L 0 110.011719 C 0 112.074219 1.28125 113.945312 3.207031 115.070312 L 35.488281 131.1875 C 35.488281 131.1875 35.488281 56.417969 35.488281 56.417969 Z M 72.257812 0.574219 L 1.710938 36.179688 L 37.199219 53.980469 L 76.105469 34.492188 L 115.015625 53.980469 L 150.289062 35.992188 L 79.527344 0.386719 C 78.457031 -0.175781 77.390625 -0.363281 76.105469 -0.363281 C 74.609375 -0.363281 73.328125 -0.175781 72.257812 0.574219 Z M 113.089844 97.269531 L 79.3125 114.320312 L 113.089844 131.375 C 113.089844 131.1875 113.089844 97.269531 113.089844 97.269531 Z M 111.382812 133.808594 L 75.894531 116.007812 L 40.617188 133.808594 L 76.105469 151.613281 Z M 111.382812 133.808594 "/>
</g>
</svg>
