<?xml version="1.0" encoding="UTF-8"?>
<svg xmlns="http://www.w3.org/2000/svg" xmlns:xlink="http://www.w3.org/1999/xlink" width="72pt" height="72pt" viewBox="0 0 72 72" version="1.1">
<g id="surface1">
<path style=" stroke:none;fill-rule:evenodd;fill:rgb(10.588235%,63.921569%,57.647059%);fill-opacity:1;" d="M 19.242188 44.832031 L 36.050781 53.265625 L 70.480469 35.957031 C 71.390625 35.511719 72 34.625 72 33.648438 L 72 18.292969 Z M 16.808594 26.722656 L 0 18.292969 L 0 52.109375 C 0 53.085938 0.609375 53.976562 1.519531 54.507812 L 16.808594 62.140625 C 16.808594 62.140625 16.808594 26.722656 16.808594 26.722656 Z M 34.226562 0.273438 L 0.808594 17.136719 L 17.621094 25.570312 L 36.050781 16.339844 L 54.480469 25.570312 L 71.191406 17.050781 L 37.671875 0.183594 C 37.164062 -0.0820312 36.660156 -0.171875 36.050781 -0.171875 C 35.339844 -0.171875 34.734375 -0.0820312 34.226562 0.273438 Z M 53.570312 46.074219 L 37.570312 54.152344 L 53.570312 62.230469 C 53.570312 62.140625 53.570312 46.074219 53.570312 46.074219 Z M 52.757812 63.382812 L 35.949219 54.949219 L 19.242188 63.382812 L 36.050781 71.816406 Z M 52.757812 63.382812 "/>
</g>
</svg>
