<?xml version="1.0" encoding="UTF-8"?>
<svg xmlns="http://www.w3.org/2000/svg" xmlns:xlink="http://www.w3.org/1999/xlink" width="76pt" height="76pt" viewBox="0 0 76 76" version="1.1">
<g id="surface1">
<path style=" stroke:none;fill-rule:evenodd;fill:rgb(10.588235%,63.921569%,57.647059%);fill-opacity:1;" d="M 20.308594 47.324219 L 38.054688 56.222656 L 74.398438 37.953125 C 75.359375 37.484375 76 36.546875 76 35.515625 L 76 19.308594 Z M 17.742188 28.207031 L 0 19.308594 L 0 55.003906 C 0 56.035156 0.640625 56.972656 1.601562 57.535156 L 17.742188 65.59375 C 17.742188 65.59375 17.742188 28.207031 17.742188 28.207031 Z M 36.128906 0.289062 L 0.855469 18.089844 L 18.597656 26.992188 L 38.054688 17.246094 L 57.507812 26.992188 L 75.144531 17.996094 L 39.765625 0.195312 C 39.230469 -0.0859375 38.695312 -0.179688 38.054688 -0.179688 C 37.304688 -0.179688 36.664062 -0.0859375 36.128906 0.289062 Z M 56.546875 48.632812 L 39.65625 57.160156 L 56.546875 65.6875 C 56.546875 65.59375 56.546875 48.632812 56.546875 48.632812 Z M 55.691406 66.90625 L 37.945312 58.003906 L 20.308594 66.90625 L 38.054688 75.804688 Z M 55.691406 66.90625 "/>
</g>
</svg>
