<?xml version="1.0" encoding="UTF-8"?>
<svg xmlns="http://www.w3.org/2000/svg" xmlns:xlink="http://www.w3.org/1999/xlink" width="114pt" height="114pt" viewBox="0 0 114 114" version="1.1">
<g id="surface1">
<path style=" stroke:none;fill-rule:evenodd;fill:rgb(10.588235%,63.921569%,57.647059%);fill-opacity:1;" d="M 30.464844 70.984375 L 57.082031 84.335938 L 111.59375 56.929688 C 113.039062 56.226562 114 54.820312 114 53.277344 L 114 28.960938 Z M 26.617188 42.3125 L 0 28.960938 L 0 82.507812 C 0 84.054688 0.960938 85.460938 2.40625 86.304688 L 26.617188 98.390625 C 26.617188 98.390625 26.617188 42.3125 26.617188 42.3125 Z M 54.195312 0.429688 L 1.28125 27.132812 L 27.898438 40.484375 L 57.082031 25.871094 L 86.261719 40.484375 L 112.71875 26.992188 L 59.644531 0.289062 C 58.84375 -0.128906 58.042969 -0.269531 57.082031 -0.269531 C 55.957031 -0.269531 54.996094 -0.128906 54.195312 0.429688 Z M 84.820312 72.953125 L 59.484375 85.742188 L 84.820312 98.53125 C 84.820312 98.390625 84.820312 72.953125 84.820312 72.953125 Z M 83.535156 100.359375 L 56.917969 87.007812 L 30.464844 100.359375 L 57.082031 113.710938 Z M 83.535156 100.359375 "/>
</g>
</svg>
