<?xml version="1.0" encoding="UTF-8"?>
<svg xmlns="http://www.w3.org/2000/svg" xmlns:xlink="http://www.w3.org/1999/xlink" width="120pt" height="120pt" viewBox="0 0 120 120" version="1.1">
<g id="surface1">
<path style=" stroke:none;fill-rule:evenodd;fill:rgb(10.588235%,63.921569%,57.647059%);fill-opacity:1;" d="M 32.066406 74.71875 L 60.085938 88.773438 L 117.46875 59.925781 C 118.988281 59.1875 120 57.707031 120 56.078125 L 120 30.484375 Z M 28.015625 44.539062 L 0 30.484375 L 0 86.851562 C 0 88.476562 1.011719 89.957031 2.53125 90.84375 L 28.015625 103.566406 C 28.015625 103.566406 28.015625 44.539062 28.015625 44.539062 Z M 57.046875 0.453125 L 1.351562 28.5625 L 29.367188 42.617188 L 60.085938 27.230469 L 90.800781 42.617188 L 118.648438 28.414062 L 62.785156 0.304688 C 61.941406 -0.136719 61.097656 -0.285156 60.085938 -0.285156 C 58.902344 -0.285156 57.890625 -0.136719 57.046875 0.453125 Z M 89.28125 76.792969 L 62.617188 90.253906 L 89.28125 103.714844 C 89.28125 103.566406 89.28125 76.792969 89.28125 76.792969 Z M 87.933594 105.640625 L 59.914062 91.585938 L 32.066406 105.640625 L 60.085938 119.695312 Z M 87.933594 105.640625 "/>
</g>
</svg>
