<?xml version="1.0" encoding="UTF-8"?>
<svg xmlns="http://www.w3.org/2000/svg" xmlns:xlink="http://www.w3.org/1999/xlink" width="144pt" height="144pt" viewBox="0 0 144 144" version="1.1">
<g id="surface1">
<path style=" stroke:none;fill-rule:evenodd;fill:rgb(10.588235%,63.921569%,57.647059%);fill-opacity:1;" d="M 38.480469 89.664062 L 72.101562 106.527344 L 140.960938 71.910156 C 142.785156 71.023438 144 69.25 144 67.296875 L 144 36.582031 Z M 33.621094 53.449219 L 0 36.582031 L 0 104.222656 C 0 106.175781 1.214844 107.949219 3.039062 109.015625 L 33.621094 124.28125 C 33.621094 124.28125 33.621094 53.449219 33.621094 53.449219 Z M 68.457031 0.546875 L 1.621094 34.273438 L 35.242188 51.140625 L 72.101562 32.675781 L 108.960938 51.140625 L 142.378906 34.097656 L 75.339844 0.367188 C 74.328125 -0.164062 73.316406 -0.34375 72.101562 -0.34375 C 70.683594 -0.34375 69.46875 -0.164062 68.457031 0.546875 Z M 107.140625 92.148438 L 75.140625 108.304688 L 107.140625 124.460938 C 107.140625 124.28125 107.140625 92.148438 107.140625 92.148438 Z M 105.519531 126.765625 L 71.898438 109.902344 L 38.480469 126.765625 L 72.101562 143.632812 Z M 105.519531 126.765625 "/>
</g>
</svg>
